<svg width="180" height="180" viewBox="0 0 180 180" fill="none" xmlns="http://www.w3.org/2000/svg" role="img" aria-labelledby="title desc">
  <title id="title">Tokenless faucet mark</title>
  <desc id="desc">A closed faucet with two small drops, representing fewer tokens.</desc>
  <rect width="180" height="180" rx="40" fill="#07100F"/>
  <circle cx="90" cy="90" r="64" fill="url(#bg)" opacity="0.16"/>
  <path d="M48 78H105C119 78 130 89 130 103V109" stroke="#D7E3DC" stroke-width="14" stroke-linecap="round"/>
  <path d="M126 108H145" stroke="#D7E3DC" stroke-width="14" stroke-linecap="round"/>
  <path d="M136 95V122" stroke="#D7E3DC" stroke-width="14" stroke-linecap="round"/>
  <path d="M43 66H76" stroke="#4ADE80" stroke-width="13" stroke-linecap="round"/>
  <path d="M58 50V82" stroke="#4ADE80" stroke-width="13" stroke-linecap="round"/>
  <path d="M48 58L68 78" stroke="#07100F" stroke-width="5" stroke-linecap="round" opacity="0.55"/>
  <path d="M68 58L48 78" stroke="#07100F" stroke-width="5" stroke-linecap="round" opacity="0.55"/>
  <path d="M117 121C117 128 112 134 106 134C100 134 95 128 95 121C95 114 106 101 106 101C106 101 117 114 117 121Z" fill="#2DD4BF"/>
  <path d="M112 150C112 154 109 158 106 158C103 158 100 154 100 150C100 146 106 139 106 139C106 139 112 146 112 150Z" fill="#2DD4BF" opacity="0.8"/>
  <path d="M132 52C142 62 148 74 149 87" stroke="#F59E0B" stroke-width="6" stroke-linecap="round" stroke-dasharray="2 12"/>
  <path d="M103 43C113 45 123 49 132 57" stroke="#F59E0B" stroke-width="6" stroke-linecap="round" stroke-dasharray="2 12"/>
  <path d="M48 105H74" stroke="#2DD4BF" stroke-width="8" stroke-linecap="round" opacity="0.9"/>
  <path d="M48 122H65" stroke="#4ADE80" stroke-width="8" stroke-linecap="round" opacity="0.75"/>
  <defs>
    <linearGradient id="bg" x1="26" y1="26" x2="154" y2="154" gradientUnits="userSpaceOnUse">
      <stop stop-color="#4ADE80"/>
      <stop offset="1" stop-color="#2DD4BF"/>
    </linearGradient>
  </defs>
</svg>
